<?xml version="1.0" standalone="no"?><!DOCTYPE svg PUBLIC "-//W3C//DTD SVG 1.1//EN" "http://www.w3.org/Graphics/SVG/1.1/DTD/svg11.dtd"><svg t="1682121923218" class="icon" viewBox="0 0 1024 1024" version="1.1" xmlns="http://www.w3.org/2000/svg" p-id="1101" xmlns:xlink="http://www.w3.org/1999/xlink" width="200" height="200"><path d="M1020.2368 383.46752c0-22.38464-6.39488-28.78464-28.77952-28.78464H35.1744c-22.38464 0-31.97952 6.4-31.97952 31.98464v502.12352c0 67.16416 28.78464 95.9488 92.7488 95.9488h834.7392c63.96416 0 92.7488-28.78464 92.7488-92.7488-3.2-175.90272-3.2-339.01568-3.2-508.5184zM28.78464 303.5136h937.08288c54.3744 0 54.3744 0 54.3744-51.1744 0-60.76416-25.58976-83.1488-83.15904-83.1488h-402.97472c-51.1744 0-51.1744 0-51.1744-51.1744 0-54.3744-25.58464-76.75904-79.95392-76.75904H83.1488C25.58464 38.05696 3.2 60.44672 0 118.016v156.71296c0 25.58464 6.4 28.78464 28.78464 28.78464z" fill="#F6CC20" p-id="1102"></path></svg>