<?xml version="1.0" standalone="no"?><!DOCTYPE svg PUBLIC "-//W3C//DTD SVG 1.1//EN" "http://www.w3.org/Graphics/SVG/1.1/DTD/svg11.dtd"><svg t="1682136374849" class="icon" viewBox="0 0 1024 1024" version="1.1" xmlns="http://www.w3.org/2000/svg" p-id="11035" xmlns:xlink="http://www.w3.org/1999/xlink" width="200" height="200"><path d="M578.048 872.96c0-8.704-7.168-15.872-15.872-15.872H384.512c-39.424-0.512-71.68-32.768-71.68-72.192V270.848c0-39.424 32.256-71.68 71.68-71.68H568.32c6.656 0 12.288 5.632 12.288 12.288v96.256c0 43.52 35.328 78.336 78.336 78.848l128 0.512c6.656 0 12.288 5.632 12.288 12.288v273.92h33.792V378.368c0-3.072-1.024-6.144-3.584-8.704-26.112-26.112-174.08-174.592-200.192-200.704-2.56-2.56-5.632-3.584-8.704-3.584H381.952c-56.32 0-102.4 46.08-102.4 102.4v519.168c0 56.32 46.08 102.4 102.4 102.4h180.224c8.704 0 15.872-7.168 15.872-16.384z m35.84-642.56c0-10.752 12.8-16.384 20.48-8.704l109.568 109.568c8.192 8.192 2.56 20.992-8.192 20.992h-68.608c-29.184 0-53.248-24.064-53.248-53.248V230.4z" fill="#4F4F4F" p-id="11036"></path><path d="M567.296 823.808h232.448l-74.752 74.752c-6.656 6.656-7.168 18.432 0 25.6s18.432 7.168 25.6 0l100.864-100.864c10.24-10.24 10.24-26.112 0-35.84l-97.28-103.424c-7.168-7.168-18.432-7.168-25.6 0s-7.168 18.432 0 25.6l72.192 77.824h-233.472c-10.24 0-23.552 7.68-23.552 17.92v0.512c0 10.752 13.312 17.92 23.552 17.92zM737.28 648.192h-77.312c-4.096 0-7.168-4.608-7.168-10.752v-21.504c0-6.144 3.072-10.752 7.168-10.752H737.28c4.096 0 7.168 4.608 7.168 10.752v21.504c0 5.632-3.072 10.752-7.168 10.752zM624.64 648.192h-77.312c-4.096 0-7.168-4.608-7.168-10.752v-21.504c0-6.144 3.072-10.752 7.168-10.752H624.64c4.096 0 7.168 4.608 7.168 10.752v21.504c0 5.632-3.072 10.752-7.168 10.752zM737.28 562.688h-77.312c-4.096 0-7.168-4.608-7.168-10.752v-21.504c0-6.144 3.072-10.752 7.168-10.752H737.28c4.096 0 7.168 4.608 7.168 10.752v21.504c0 6.144-3.072 10.752-7.168 10.752zM624.64 562.688h-77.312c-4.096 0-7.168-4.608-7.168-10.752v-21.504c0-6.144 3.072-10.752 7.168-10.752H624.64c4.096 0 7.168 4.608 7.168 10.752v21.504c0 6.144-3.072 10.752-7.168 10.752zM737.28 477.184h-77.312c-4.096 0-7.168-4.608-7.168-10.752V445.44c0-6.144 3.072-10.752 7.168-10.752H737.28c4.096 0 7.168 4.608 7.168 10.752v21.504c0 5.632-3.072 10.24-7.168 10.24zM624.64 477.184h-77.312c-4.096 0-7.168-4.608-7.168-10.752V445.44c0-6.144 3.072-10.752 7.168-10.752H624.64c4.096 0 7.168 4.608 7.168 10.752v21.504c0 5.632-3.072 10.24-7.168 10.24zM156.672 736.768h304.64c20.992 0 37.888-16.896 37.888-37.888V394.24c0-20.992-16.896-37.888-37.888-37.888H156.672c-20.992 0-37.888 16.896-37.888 37.888v304.64c0 20.992 16.896 37.888 37.888 37.888z" fill="#0BAD41" p-id="11037"></path><path d="M203.776 660.48l75.264-114.688L209.92 432.128h55.296l37.376 72.704c3.584 6.656 5.632 12.288 7.168 15.36h0.512c2.56-5.632 5.12-10.752 7.68-15.872L358.4 432.128h50.688l-70.656 113.152L410.624 660.48H356.864l-43.52-79.872c-2.048-3.584-3.584-7.168-5.12-10.752h-0.512c-0.512 2.56-2.56 6.144-5.12 10.24L258.048 660.48H203.776z" fill="#F9F7F7" p-id="11038"></path></svg>